<?xml version="1.0" encoding="UTF-8"?>
<svg height="128px" viewBox="0 0 128 128" width="128px" xmlns="http://www.w3.org/2000/svg" xmlns:xlink="http://www.w3.org/1999/xlink">
    <filter id="a" height="100%" width="100%" x="0%" y="0%">
        <feColorMatrix color-interpolation-filters="sRGB" values="0 0 0 0 1 0 0 0 0 1 0 0 0 0 1 0 0 0 1 0"/>
    </filter>
    <linearGradient id="b" gradientUnits="userSpaceOnUse" x1="-363.848328" x2="-239.554886" y1="227.685974" y2="227.685974">
        <stop offset="0" stop-color="#1a1a1a"/>
        <stop offset="1" stop-color="#1a1a1a" stop-opacity="0.860282"/>
    </linearGradient>
    <mask id="c">
        <g filter="url(#a)">
            <rect fill-opacity="0.878169" height="153.6" width="153.6" x="-12.8" y="-12.8"/>
        </g>
    </mask>
    <clipPath id="d">
        <rect height="152" width="192"/>
    </clipPath>
    <path d="m -339.116895 182.079051 h 74.82001 c 6.497685 0 11.765808 5.268123 11.765808 11.765808 v 67.715875 c 0 6.497685 -5.268123 11.765808 -11.765808 11.765808 h -74.82001 c -6.497685 0 -11.765808 -5.268123 -11.765808 -11.765808 v -67.715875 c 0 -6.497685 5.268123 -11.765808 11.765808 -11.765808 z m 0 0" fill="url(#b)" stroke="#ffffff" stroke-width="2.04478" transform="matrix(1.172293 0 0 1.172293 418.348882 -199.262407)"/>
    <path d="m 29.023438 28.730469 c 0 3.394531 -2.75 6.144531 -6.140626 6.144531 c -3.390624 0 -6.140624 -2.75 -6.140624 -6.144531 c 0 -3.390625 2.75 -6.140625 6.140624 -6.140625 c 3.390626 0 6.140626 2.75 6.140626 6.140625 z m 0 0" fill="#1bacbb"/>
    <g mask="url(#c)">
        <g clip-path="url(#d)" transform="matrix(1 0 0 1 -8 -16)">
            <path d="m 44.882812 118.75 c -4.085937 0 -7.410156 -1.511719 -9.980468 -4.53125 c -2.558594 -3.03125 -3.835938 -7.082031 -3.835938 -12.148438 v -10.875 c 0 -5.058593 1.277344 -9.105468 3.835938 -12.125 c 2.570312 -3.03125 5.894531 -4.554687 9.980468 -4.554687 c 2.847657 0 5.269532 0.71875 7.257813 2.148437 c 1.988281 1.421876 3.441406 3.449219 4.371094 6.082032 l -0.296875 -9.78125 v -11.628906 h 11.628906 v 56.640624 h -11.25 v -7.675781 c -0.929688 2.695313 -2.402344 4.773438 -4.414062 6.242188 c -2.019532 1.472656 -4.449219 2.207031 -7.296876 2.207031 z m 4.492188 -10.078125 c 2.226562 0 3.921875 -0.636719 5.089844 -1.910156 c 1.164062 -1.273438 1.75 -3.089844 1.75 -5.464844 v -9.324219 c 0 -2.371094 -0.585938 -4.1875 -1.75 -5.449218 c -1.167969 -1.269532 -2.863282 -1.90625 -5.089844 -1.90625 c -2.121094 0 -3.765625 0.59375 -4.929688 1.789062 c -1.152343 1.183594 -1.730468 2.910156 -1.730468 5.1875 v 10.078125 c 0 2.226563 0.578125 3.953125 1.730468 5.171875 c 1.164063 1.222656 2.808594 1.828125 4.929688 1.828125 z m 29.800781 9.304687 v -10.476562 h 11.253907 v -35.6875 h -11.253907 v -10.476562 h 34.15625 v 10.476562 h -11.253906 v 35.6875 h 11.253906 v 10.476562 z m -52.761719 -79.15625" fill="#1bacbb"/>
        </g>
    </g>
</svg>
